%TF.GenerationSoftware,KiCad,Pcbnew,(6.0.9-0)*%
%TF.CreationDate,2023-02-23T20:44:17-08:00*%
%TF.ProjectId,esp32 caliper,65737033-3220-4636-916c-697065722e6b,rev?*%
%TF.SameCoordinates,Original*%
%TF.FileFunction,Paste,Top*%
%TF.FilePolarity,Positive*%
%FSLAX46Y46*%
G04 Gerber Fmt 4.6, Leading zero omitted, Abs format (unit mm)*
G04 Created by KiCad (PCBNEW (6.0.9-0)) date 2023-02-23 20:44:17*
%MOMM*%
%LPD*%
G01*
G04 APERTURE LIST*
G04 Aperture macros list*
%AMRoundRect*
0 Rectangle with rounded corners*
0 $1 Rounding radius*
0 $2 $3 $4 $5 $6 $7 $8 $9 X,Y pos of 4 corners*
0 Add a 4 corners polygon primitive as box body*
4,1,4,$2,$3,$4,$5,$6,$7,$8,$9,$2,$3,0*
0 Add four circle primitives for the rounded corners*
1,1,$1+$1,$2,$3*
1,1,$1+$1,$4,$5*
1,1,$1+$1,$6,$7*
1,1,$1+$1,$8,$9*
0 Add four rect primitives between the rounded corners*
20,1,$1+$1,$2,$3,$4,$5,0*
20,1,$1+$1,$4,$5,$6,$7,0*
20,1,$1+$1,$6,$7,$8,$9,0*
20,1,$1+$1,$8,$9,$2,$3,0*%
G04 Aperture macros list end*
%ADD10C,0.010000*%
%ADD11RoundRect,0.135000X-0.135000X-0.185000X0.135000X-0.185000X0.135000X0.185000X-0.135000X0.185000X0*%
%ADD12RoundRect,0.140000X-0.140000X-0.170000X0.140000X-0.170000X0.140000X0.170000X-0.140000X0.170000X0*%
%ADD13RoundRect,0.250000X0.250000X-0.500000X0.250000X0.500000X-0.250000X0.500000X-0.250000X-0.500000X0*%
%ADD14RoundRect,0.500000X0.500000X0.500000X-0.500000X0.500000X-0.500000X-0.500000X0.500000X-0.500000X0*%
%ADD15R,1.200000X2.500000*%
%ADD16R,0.600000X1.150000*%
%ADD17R,0.300000X1.150000*%
%ADD18R,0.650000X1.050000*%
%ADD19RoundRect,0.135000X0.185000X-0.135000X0.185000X0.135000X-0.185000X0.135000X-0.185000X-0.135000X0*%
%ADD20RoundRect,0.135000X-0.185000X0.135000X-0.185000X-0.135000X0.185000X-0.135000X0.185000X0.135000X0*%
%ADD21RoundRect,0.150000X0.150000X-0.587500X0.150000X0.587500X-0.150000X0.587500X-0.150000X-0.587500X0*%
%ADD22RoundRect,0.218750X-0.218750X-0.256250X0.218750X-0.256250X0.218750X0.256250X-0.218750X0.256250X0*%
%ADD23RoundRect,0.325000X0.325000X0.325000X-0.325000X0.325000X-0.325000X-0.325000X0.325000X-0.325000X0*%
%ADD24RoundRect,0.325000X-0.325000X-0.325000X0.325000X-0.325000X0.325000X0.325000X-0.325000X0.325000X0*%
%ADD25RoundRect,0.140000X0.170000X-0.140000X0.170000X0.140000X-0.170000X0.140000X-0.170000X-0.140000X0*%
%ADD26R,1.500000X1.000000*%
%ADD27RoundRect,0.135000X0.135000X0.185000X-0.135000X0.185000X-0.135000X-0.185000X0.135000X-0.185000X0*%
%ADD28RoundRect,0.140000X-0.170000X0.140000X-0.170000X-0.140000X0.170000X-0.140000X0.170000X0.140000X0*%
%ADD29R,0.700000X0.600000*%
%ADD30RoundRect,0.088500X-0.516500X-0.206500X0.516500X-0.206500X0.516500X0.206500X-0.516500X0.206500X0*%
%ADD31R,0.600000X0.500000*%
%ADD32R,0.400000X0.800000*%
%ADD33R,0.800000X0.400000*%
%ADD34R,1.450000X1.450000*%
%ADD35R,0.700000X0.700000*%
%ADD36RoundRect,0.099000X0.551000X-0.396000X0.551000X0.396000X-0.551000X0.396000X-0.551000X-0.396000X0*%
%ADD37RoundRect,0.059000X0.591000X-0.236000X0.591000X0.236000X-0.591000X0.236000X-0.591000X-0.236000X0*%
%ADD38R,0.600000X0.700000*%
%ADD39R,1.270000X0.558800*%
G04 APERTURE END LIST*
%TO.C,U4*%
G36*
X185420000Y-72195000D02*
G01*
X185420000Y-73045000D01*
X183970000Y-73045000D01*
X183970000Y-71595000D01*
X184820000Y-71595000D01*
X185420000Y-72195000D01*
G37*
D10*
X185420000Y-72195000D02*
X185420000Y-73045000D01*
X183970000Y-73045000D01*
X183970000Y-71595000D01*
X184820000Y-71595000D01*
X185420000Y-72195000D01*
%TD*%
D11*
%TO.C,R14*%
X175240000Y-77500000D03*
X176260000Y-77500000D03*
%TD*%
D12*
%TO.C,C1*%
X169490400Y-75560200D03*
X168530400Y-75560200D03*
%TD*%
D13*
%TO.C,U2*%
X140500000Y-55880000D03*
X142000000Y-55880000D03*
X143500000Y-55880000D03*
%TD*%
D14*
%TO.C,BT1*%
X158750000Y-80000000D03*
X158750000Y-75000000D03*
%TD*%
D15*
%TO.C,S1*%
X177000000Y-58750000D03*
X174500000Y-58750000D03*
X172000000Y-58750000D03*
%TD*%
D16*
%TO.C,J1*%
X191150000Y-61565000D03*
X190350000Y-61565000D03*
D17*
X189200000Y-61565000D03*
X188200000Y-61565000D03*
X187700000Y-61565000D03*
X186700000Y-61565000D03*
D16*
X184750000Y-61565000D03*
X185550000Y-61565000D03*
D17*
X186200000Y-61565000D03*
X187200000Y-61565000D03*
X188700000Y-61565000D03*
X189700000Y-61565000D03*
%TD*%
D18*
%TO.C,SW4*%
X173925000Y-90575000D03*
X173925000Y-86425000D03*
X176075000Y-90575000D03*
X176075000Y-86450000D03*
%TD*%
%TO.C,SW3*%
X158575000Y-86425000D03*
X158575000Y-90575000D03*
X156425000Y-86425000D03*
X156425000Y-90550000D03*
%TD*%
%TO.C,SW2*%
X165425000Y-59550000D03*
X165425000Y-55425000D03*
X167575000Y-59575000D03*
X167575000Y-55425000D03*
%TD*%
%TO.C,SW1*%
X163000000Y-55425000D03*
X163000000Y-59575000D03*
X160850000Y-55425000D03*
X160850000Y-59550000D03*
%TD*%
D19*
%TO.C,R13*%
X183500000Y-66510000D03*
X183500000Y-65490000D03*
%TD*%
D20*
%TO.C,R12*%
X147250000Y-59240000D03*
X147250000Y-60260000D03*
%TD*%
%TO.C,R11*%
X146250000Y-60260000D03*
X146250000Y-59240000D03*
%TD*%
%TO.C,R2*%
X151000000Y-59240000D03*
X151000000Y-60260000D03*
%TD*%
D21*
%TO.C,Q2*%
X146300000Y-57687500D03*
X148200000Y-57687500D03*
X147250000Y-55812500D03*
%TD*%
%TO.C,Q1*%
X151000000Y-55812500D03*
X151950000Y-57687500D03*
X150050000Y-57687500D03*
%TD*%
D22*
%TO.C,D5*%
X180212500Y-55300000D03*
X181787500Y-55300000D03*
%TD*%
D12*
%TO.C,C10*%
X185100000Y-66270000D03*
X186060000Y-66270000D03*
%TD*%
D23*
%TO.C,U6*%
X163262000Y-84175000D03*
X164862000Y-84175000D03*
X166462000Y-84175000D03*
X168062000Y-84175000D03*
X169662000Y-84175000D03*
D24*
X163262000Y-80175000D03*
X164862000Y-80175000D03*
X166462000Y-80175000D03*
X168062000Y-80175000D03*
X169662000Y-80175000D03*
%TD*%
D25*
%TO.C,C2*%
X163010400Y-76940200D03*
X163010400Y-75980200D03*
%TD*%
D20*
%TO.C,R1*%
X150000000Y-59240000D03*
X150000000Y-60260000D03*
%TD*%
D26*
%TO.C,D2*%
X168950000Y-90100000D03*
X168950000Y-86900000D03*
X164050000Y-86900000D03*
X164050000Y-90100000D03*
%TD*%
D27*
%TO.C,R8*%
X168020400Y-73810200D03*
X167000400Y-73810200D03*
%TD*%
D12*
%TO.C,C9*%
X185100000Y-65000000D03*
X186060000Y-65000000D03*
%TD*%
D28*
%TO.C,C4*%
X166000000Y-66580200D03*
X166000000Y-67540200D03*
%TD*%
D11*
%TO.C,R3*%
X164570000Y-70755000D03*
X165590000Y-70755000D03*
%TD*%
D29*
%TO.C,D3*%
X174500000Y-62700000D03*
X174500000Y-61300000D03*
%TD*%
D30*
%TO.C,U3*%
X160745000Y-66610200D03*
X160745000Y-67560200D03*
X160745000Y-68510200D03*
X163255000Y-68510200D03*
X163255000Y-66610200D03*
%TD*%
D19*
%TO.C,R6*%
X193675000Y-59565000D03*
X193675000Y-58545000D03*
%TD*%
D27*
%TO.C,R7*%
X165590000Y-72025000D03*
X164570000Y-72025000D03*
%TD*%
D31*
%TO.C,Q3*%
X168160400Y-72525000D03*
X168160400Y-71525000D03*
X166860400Y-72025000D03*
%TD*%
D19*
%TO.C,R4*%
X189250000Y-66010000D03*
X189250000Y-64990000D03*
%TD*%
D28*
%TO.C,C3*%
X159000000Y-66580200D03*
X159000000Y-67540200D03*
%TD*%
D27*
%TO.C,R9*%
X165590000Y-73460200D03*
X164570000Y-73460200D03*
%TD*%
D19*
%TO.C,R5*%
X188020000Y-66010000D03*
X188020000Y-64990000D03*
%TD*%
D32*
%TO.C,U4*%
X186720000Y-68395000D03*
X185920000Y-68395000D03*
X185120000Y-68395000D03*
X184320000Y-68395000D03*
X183520000Y-68395000D03*
X182720000Y-68395000D03*
X181920000Y-68395000D03*
X181120000Y-68395000D03*
X180320000Y-68395000D03*
X179520000Y-68395000D03*
X178720000Y-68395000D03*
D33*
X177820000Y-69495000D03*
X177820000Y-70295000D03*
X177820000Y-71095000D03*
X177820000Y-71895000D03*
X177820000Y-72695000D03*
X177820000Y-73495000D03*
X177820000Y-74295000D03*
X177820000Y-75095000D03*
X177820000Y-75895000D03*
X177820000Y-76695000D03*
X177820000Y-77495000D03*
X177820000Y-78295000D03*
X177820000Y-79095000D03*
D32*
X178720000Y-80195000D03*
X179520000Y-80195000D03*
X180320000Y-80195000D03*
X181120000Y-80195000D03*
X181920000Y-80195000D03*
X182720000Y-80195000D03*
X183520000Y-80195000D03*
X184320000Y-80195000D03*
X185120000Y-80195000D03*
X185920000Y-80195000D03*
X186720000Y-80195000D03*
D33*
X187620000Y-79095000D03*
X187620000Y-78295000D03*
X187620000Y-77495000D03*
X187620000Y-76695000D03*
X187620000Y-75895000D03*
X187620000Y-75095000D03*
X187620000Y-74295000D03*
X187620000Y-73495000D03*
X187620000Y-72695000D03*
X187620000Y-71895000D03*
X187620000Y-71095000D03*
X187620000Y-70295000D03*
X187620000Y-69495000D03*
D34*
X184695000Y-74295000D03*
X184695000Y-76270000D03*
X182720000Y-76270000D03*
X180745000Y-76270000D03*
X180745000Y-74295000D03*
X180745000Y-72320000D03*
X182720000Y-72320000D03*
X182720000Y-74295000D03*
D35*
X187670000Y-80245000D03*
X177770000Y-80245000D03*
X177770000Y-68345000D03*
X187670000Y-68345000D03*
%TD*%
D28*
%TO.C,C5*%
X165000000Y-66580200D03*
X165000000Y-67540200D03*
%TD*%
D36*
%TO.C,D1*%
X193525000Y-66165000D03*
D37*
X193525000Y-64445000D03*
X191475000Y-64445000D03*
X191475000Y-66365000D03*
%TD*%
D19*
%TO.C,R10*%
X165500000Y-63010000D03*
X165500000Y-61990000D03*
%TD*%
D38*
%TO.C,D4*%
X169950000Y-77000000D03*
X168550000Y-77000000D03*
%TD*%
D39*
%TO.C,U1*%
X164419600Y-75060200D03*
X164419600Y-76000000D03*
X164419600Y-76939800D03*
X167010400Y-76939800D03*
X167010400Y-75060200D03*
%TD*%
M02*
