M48
; DRILL file {KiCad (6.0.9-0)} date Thursday, February 23, 2023 at 08:44:16 PM
; FORMAT={-:-/ absolute / inch / decimal}
; #@! TF.CreationDate,2023-02-23T20:44:16-08:00
; #@! TF.GenerationSoftware,Kicad,Pcbnew,(6.0.9-0)
; #@! TF.FileFunction,Plated,1,2,PTH
FMAT,2
INCH
; #@! TA.AperFunction,Plated,PTH,ViaDrill
T1C0.0079
; #@! TA.AperFunction,Plated,PTH,ComponentDrill
T2C0.0197
; #@! TA.AperFunction,Plated,PTH,ComponentDrill
T3C0.0236
%
G90
G05
T1
X5.6496Y-2.2795
X5.8317Y-2.3474
X5.8366Y-2.2146
X5.8661Y-2.372
X5.8957Y-2.4409
X5.9449Y-2.4508
X5.9843Y-2.2146
X5.9941Y-2.4508
X6.25Y-2.8839
X6.2598Y-2.6969
X6.2894Y-2.3425
X6.2992Y-2.4016
X6.2992Y-2.7362
X6.3484Y-3.1703
X6.3492Y-3.0217
X6.3852Y-3.0837
X6.3971Y-3.061
X6.4173Y-2.9528
X6.4262Y-2.4508
X6.4262Y-2.5895
X6.4469Y-2.874
X6.4469Y-3.061
X6.4764Y-2.9232
X6.5193Y-2.7154
X6.5193Y-2.7602
X6.5748Y-2.5403
X6.5748Y-2.7657
X6.6142Y-2.6673
X6.6339Y-2.2343
X6.6535Y-2.3425
X6.6535Y-2.9035
X6.6634Y-2.815
X6.6831Y-2.2146
X6.7116Y-2.9724
X6.752Y-3.1594
X6.7913Y-2.8543
X6.7913Y-3.0807
X6.7923Y-3.0118
X6.8209Y-2.4705
X6.8209Y-2.5492
X6.8661Y-2.6457
X6.8661Y-3.0472
X6.8898Y-2.5984
X6.8898Y-2.6693
X6.8898Y-2.9044
X6.9262Y-2.6644
X6.938Y-2.6191
X6.939Y-3.1594
X7.0276Y-2.5975
X7.0374Y-2.7953
X7.0565Y-2.6606
X7.0571Y-2.4606
X7.0648Y-2.7629
X7.0865Y-2.661
X7.1161Y-3.061
X7.126Y-2.6181
X7.1514Y-2.6399
X7.2677Y-2.3071
X7.3031Y-2.747
X7.3197Y-2.6409
X7.3229Y-2.7256
X7.3327Y-2.5
X7.3614Y-2.6091
X7.3917Y-2.5
X7.4016Y-2.3829
X7.4114Y-2.4705
X7.5062Y-2.5369
X7.5098Y-2.4705
X7.5354Y-2.3071
X7.626Y-2.3819
T2
X6.0221Y-3.2352
X6.0517Y-3.2352
X6.0812Y-3.2352
X6.1107Y-3.2352
X6.1402Y-3.2352
X6.1698Y-3.2352
X6.1993Y-3.2352
X6.2288Y-3.2352
X6.2583Y-3.2352
X6.2879Y-3.2352
X6.3174Y-3.2352
X6.3469Y-3.2352
X6.3765Y-3.2352
X6.406Y-3.2352
X6.4355Y-3.2352
X6.465Y-3.2352
X6.4946Y-3.2352
X6.5241Y-3.2352
X6.5536Y-3.2352
X6.5831Y-3.2352
X6.6127Y-3.2352
X6.6422Y-3.2352
X6.6717Y-3.2352
X6.7013Y-3.2352
X6.7308Y-3.2352
X6.7603Y-3.2352
X6.7898Y-3.2352
X6.8194Y-3.2352
X6.8489Y-3.2352
X6.8784Y-3.2352
X6.908Y-3.2352
X6.9375Y-3.2352
X6.939Y-2.4409
X6.967Y-3.2352
X6.9783Y-2.4409
X6.9965Y-3.2352
X7.0261Y-3.2352
X7.0556Y-3.2352
X7.0851Y-3.2352
X7.126Y-2.3819
X7.126Y-2.4213
X7.126Y-2.4606
X7.126Y-2.5
X7.126Y-2.5394
X7.126Y-2.5787
T3
G00X7.2295Y-2.2524
M15
G01X7.2295Y-2.2209
M16
G05
G00X7.2295Y-2.4228
M15
G01X7.2295Y-2.3795
M16
G05
G00X7.5697Y-2.2524
M15
G01X7.5697Y-2.2209
M16
G05
G00X7.5697Y-2.4228
M15
G01X7.5697Y-2.3795
M16
G05
T0
M30
