%TF.GenerationSoftware,KiCad,Pcbnew,(6.0.9-0)*%
%TF.CreationDate,2023-02-23T20:44:17-08:00*%
%TF.ProjectId,esp32 caliper,65737033-3220-4636-916c-697065722e6b,rev?*%
%TF.SameCoordinates,Original*%
%TF.FileFunction,Soldermask,Bot*%
%TF.FilePolarity,Negative*%
%FSLAX46Y46*%
G04 Gerber Fmt 4.6, Leading zero omitted, Abs format (unit mm)*
G04 Created by KiCad (PCBNEW (6.0.9-0)) date 2023-02-23 20:44:17*
%MOMM*%
%LPD*%
G01*
G04 APERTURE LIST*
%ADD10C,1.000000*%
%ADD11C,3.200000*%
%ADD12C,0.650000*%
%ADD13O,1.050000X2.100000*%
%ADD14O,1.000000X2.000000*%
%ADD15R,0.850000X0.850000*%
%ADD16O,0.850000X0.850000*%
%ADD17C,0.500000*%
G04 APERTURE END LIST*
D10*
%TO.C,S1*%
X177900000Y-56000000D03*
X171100000Y-56000000D03*
%TD*%
D11*
%TO.C,H1*%
X156200000Y-57600000D03*
%TD*%
D12*
%TO.C,J1*%
X185060000Y-60490000D03*
X190840000Y-60490000D03*
D13*
X192270000Y-60990000D03*
D14*
X192270000Y-56810000D03*
X183630000Y-56810000D03*
D13*
X183630000Y-60990000D03*
%TD*%
D15*
%TO.C,J2*%
X177250000Y-62000000D03*
D16*
X176250000Y-62000000D03*
%TD*%
D15*
%TO.C,U9*%
X181000000Y-60500000D03*
D16*
X181000000Y-61500000D03*
X181000000Y-62500000D03*
X181000000Y-63500000D03*
X181000000Y-64500000D03*
X181000000Y-65500000D03*
%TD*%
D17*
%TO.C,U6*%
X173212000Y-82175000D03*
X168712000Y-82175000D03*
X161962000Y-82175000D03*
X163462000Y-82175000D03*
X178462000Y-82175000D03*
X176962000Y-82175000D03*
X175462000Y-82175000D03*
X155962000Y-82175000D03*
X179212000Y-82175000D03*
X170212000Y-82175000D03*
X177712000Y-82175000D03*
X164962000Y-82175000D03*
X159712000Y-82175000D03*
X152962000Y-82175000D03*
X170962000Y-82175000D03*
X155212000Y-82175000D03*
X169462000Y-82175000D03*
X158212000Y-82175000D03*
X172462000Y-82175000D03*
X167962000Y-82175000D03*
X153712000Y-82175000D03*
X174712000Y-82175000D03*
X166462000Y-82175000D03*
X176212000Y-82175000D03*
X157462000Y-82175000D03*
X173962000Y-82175000D03*
X171712000Y-82175000D03*
X167212000Y-82175000D03*
X161212000Y-82175000D03*
X160462000Y-82175000D03*
X164212000Y-82175000D03*
X158962000Y-82175000D03*
X156712000Y-82175000D03*
X179962000Y-82175000D03*
X165712000Y-82175000D03*
X162712000Y-82175000D03*
X154462000Y-82175000D03*
%TD*%
M02*
